<?xml version="1.0" encoding="UTF-8" standalone="no"?>
<svg xmlns="http://www.w3.org/2000/svg" width="100%" height="100%" viewBox="0 0 16 16.006" fit=""
    preserveAspectRatio="xMidYMid meet" focusable="false">
    <defs>
        <style>.we-item-usertask-a{fill:transparent;}.we-item-usertask-b{fill:#006ce0;} </style>
    </defs>
    <rect class="we-item-usertask-a" width="16" height="16"></rect>
    <path class="we-item-usertask-b"
        d="M-451.458,691.294h-.991a1.41,1.41,0,0,1-1.1-.457,1.512,1.512,0,0,1-.412-1.043v-.8a.962.962,0,0,0-.295-.117.541.541,0,0,1-.225-.091l-.59.492a1.475,1.475,0,0,1-1.107.469,1.472,1.472,0,0,1-1.107-.469l-.7-.7a1.48,1.48,0,0,1-.366-.5,1.409,1.409,0,0,1-.129-.574,1.458,1.458,0,0,1,.129-.6,1.462,1.462,0,0,1,.36-.509l.613-.609q-.094-.141-.153-.246a.492.492,0,0,1-.057-.246h-.9a1.469,1.469,0,0,1-1.1-.422,1.477,1.477,0,0,1-.412-1.078v-1.008a1.467,1.467,0,0,1,.412-1.09,1.489,1.489,0,0,1,1.1-.41h.8a1.034,1.034,0,0,0,.1-.281.371.371,0,0,1,.094-.211l-.5-.608a1.782,1.782,0,0,1-.366-.516,1.382,1.382,0,0,1-.129-.586,1.376,1.376,0,0,1,.129-.586,1.77,1.77,0,0,1,.366-.512l.705-.7a1.511,1.511,0,0,1,1.107-.445,1.512,1.512,0,0,1,1.107.445l.59.609a.454.454,0,0,1,.225-.187q.129-.048.294-.117v-.8a1.467,1.467,0,0,1,.413-1.09,1.488,1.488,0,0,1,1.1-.41h.991a1.484,1.484,0,0,1,1.1.41,1.464,1.464,0,0,1,.413,1.09v.8a1.429,1.429,0,0,0,.3.094.41.41,0,0,1,.224.117l.59-.516a1.514,1.514,0,0,1,1.108-.445,1.512,1.512,0,0,1,1.107.445l.705.7a1.5,1.5,0,0,1,.448,1.1,1.5,1.5,0,0,1-.436,1.1l-.613.609q.094.141.153.246a.508.508,0,0,1,.057.245h.805a1.425,1.425,0,0,1,1.1.445,1.489,1.489,0,0,1,.412,1.055v1.008a1.415,1.415,0,0,1-.448,1.078,1.5,1.5,0,0,1-1.062.422h-.805a.993.993,0,0,0-.1.281.315.315,0,0,1-.117.211l.615.609a1.479,1.479,0,0,1,.448,1.09,1.482,1.482,0,0,1-.448,1.09l-.705.7a1.475,1.475,0,0,1-1.107.469,1.476,1.476,0,0,1-1.108-.469l-.59-.586a1.835,1.835,0,0,0-.259.129.5.5,0,0,1-.26.059v.8a1.647,1.647,0,0,1-.413,1.184A1.445,1.445,0,0,1-451.458,691.294Zm-3.3-3.914.4.211a2.059,2.059,0,0,0,.5.234q.3.093.6.164l.4.094v1.594a.576.576,0,0,0,.13.34.428.428,0,0,0,.365.176h1.015a.538.538,0,0,0,.318-.141.455.455,0,0,0,.177-.375v-1.591l.4-.094a2.323,2.323,0,0,0,.554-.2,2.333,2.333,0,0,1,.555-.2l.4-.211,1.107,1.2a.429.429,0,0,0,.33.164.3.3,0,0,0,.283-.164l.685-.68a.5.5,0,0,0,.165-.352.256.256,0,0,0-.168-.263l-1.2-1.1.212-.4a2.643,2.643,0,0,0,.236-.516q.095-.282.165-.586l.091-.4h1.605a.56.56,0,0,0,.342-.141.433.433,0,0,0,.177-.352v-1.007a.523.523,0,0,0-.142-.316.457.457,0,0,0-.377-.176h-1.605l-.094-.4a2.482,2.482,0,0,0-.2-.562,2.668,2.668,0,0,1-.2-.539l-.212-.4,1.208-1.219a.425.425,0,0,0,.165-.328.256.256,0,0,0-.165-.258l-.685-.7a.536.536,0,0,0-.354-.141.262.262,0,0,0-.26.141l-1.112,1.2-.4-.187a1.755,1.755,0,0,0-.519-.246q-.283-.082-.59-.152l-.5-.117v-1.6a.478.478,0,0,0-.177-.316.5.5,0,0,0-.342-.176h-.991a.5.5,0,0,0-.342.176.483.483,0,0,0-.177.316v1.594l-.4.117a2.641,2.641,0,0,0-.554.188,4.223,4.223,0,0,1-.555.211l-.283.281-1.107-1.2a.536.536,0,0,0-.354-.141.262.262,0,0,0-.257.15l-.8.7a.419.419,0,0,0-.166.328.3.3,0,0,0,.166.281l1.207,1.1-.188.492a1.729,1.729,0,0,0-.247.516q-.083.281-.178.586l-.188.3h-1.606a.5.5,0,0,0-.343.176.483.483,0,0,0-.177.316v1.008a.485.485,0,0,0,.177.316.511.511,0,0,0,.343.181h1.6l.1.4a2.319,2.319,0,0,0,.2.551,2.246,2.246,0,0,1,.2.551l.213.4-1.2,1.1a.241.241,0,0,0-.106.152,1.271,1.271,0,0,0-.012.152.839.839,0,0,0,.012.141.333.333,0,0,0,.106.164l.684.68a.5.5,0,0,0,.355.164.259.259,0,0,0,.26-.164Zm2.761-1.088a2.862,2.862,0,0,1-2.133-.892,2.925,2.925,0,0,1-.867-2.108,2.877,2.877,0,0,1,.9-2.1,2.877,2.877,0,0,1,2.1-.9,2.877,2.877,0,0,1,2.1.9,2.877,2.877,0,0,1,.9,2.1,2.925,2.925,0,0,1-.867,2.108A2.862,2.862,0,0,1-452,686.292Zm0-4.992a1.92,1.92,0,0,0-1.406.586,1.919,1.919,0,0,0-.586,1.406,1.949,1.949,0,0,0,.586,1.43,1.92,1.92,0,0,0,1.406.586,1.92,1.92,0,0,0,1.406-.586,1.949,1.949,0,0,0,.586-1.43,1.919,1.919,0,0,0-.586-1.406A1.92,1.92,0,0,0-452,681.3Z"
        transform="translate(460 -675.289)"></path>
</svg>